<svg xmlns="http://www.w3.org/2000/svg" xmlns:xlink="http://www.w3.org/1999/xlink" style="height: 0; position: absolute">
  <symbol id="codepen" viewBox="0 0 24 24"><path d="M15.988 5.443c-.004-.02-.007-.04-.012-.058l-.01-.033c-.006-.017-.012-.034-.02-.05-.003-.012-.01-.023-.014-.034l-.023-.045-.02-.032-.03-.04-.024-.03c-.01-.013-.022-.026-.034-.038l-.027-.027-.04-.032-.03-.024-.012-.01L8.38.117c-.23-.155-.53-.155-.76 0L.305 4.99.296 5c-.012.007-.022.015-.032.023-.014.01-.027.02-.04.032l-.027.027-.034.037-.024.03-.03.04c-.006.012-.013.022-.02.033l-.023.045-.015.034c-.007.016-.012.033-.018.05l-.01.032c-.005.02-.01.038-.012.058l-.006.03C.002 5.5 0 5.53 0 5.56v4.875c0 .03.002.06.006.09l.007.03c.003.02.006.04.013.058l.01.033c.006.018.01.035.018.05l.015.033c.006.016.014.03.023.047l.02.03c.008.016.018.03.03.042.007.01.014.02.023.03.01.012.02.025.034.036.01.01.018.02.028.026l.04.033.03.023.01.01 7.31 4.876c.116.078.248.117.382.116.134 0 .266-.04.38-.116l7.314-4.875.01-.01c.012-.007.022-.015.032-.023.014-.01.027-.02.04-.032l.027-.027.034-.037.024-.03.03-.04.02-.032.023-.046.015-.033.018-.052.01-.033c.005-.02.01-.038.013-.058 0-.01.003-.02.004-.03.004-.03.006-.06.006-.09V5.564c0-.03-.002-.06-.006-.09l-.007-.03zM8 9.626L5.568 8 8 6.374 10.432 8 8 9.626zM7.312 5.18l-2.98 1.993-2.406-1.61 5.386-3.59v3.206zM3.095 8l-1.72 1.15v-2.3L3.095 8zm1.237.828l2.98 1.993v3.208l-5.386-3.59 2.406-1.61zm4.355 1.993l2.98-1.993 2.407 1.61-5.387 3.59v-3.206zM12.905 8l1.72-1.15v2.3L12.905 8zm-1.237-.827L8.688 5.18V1.97l5.386 3.59-2.406 1.61z" fill-rule="nonzero"/></symbol>
  <symbol id="dribbble" viewBox="0 0 24 24"><path d="M8 16c-4.41 0-8-3.59-8-8s3.59-8 8-8 8 3.59 8 8-3.59 8-8 8zm6.747-6.905c-.234-.074-2.115-.635-4.257-.292.894 2.456 1.258 4.456 1.328 4.872 1.533-1.037 2.624-2.68 2.93-4.58zM10.67 14.3c-.102-.6-.5-2.688-1.46-5.18l-.044.014C5.312 10.477 3.93 13.15 3.806 13.4c1.158.905 2.614 1.444 4.194 1.444.947 0 1.85-.194 2.67-.543zm-7.747-1.72c.155-.266 2.03-3.37 5.555-4.51.09-.03.18-.056.27-.08-.173-.39-.36-.778-.555-1.16C4.78 7.85 1.47 7.807 1.17 7.8l-.003.208c0 1.755.665 3.358 1.756 4.57zM1.31 6.61c.307.005 3.122.017 6.318-.832-1.132-2.012-2.353-3.705-2.533-3.952-1.912.902-3.34 2.664-3.784 4.785zM6.4 1.368c.188.253 1.43 1.943 2.548 4 2.43-.91 3.46-2.293 3.582-2.468C11.323 1.827 9.736 1.176 8 1.176c-.55 0-1.087.066-1.6.19zm6.89 2.322c-.145.194-1.29 1.662-3.816 2.694.16.325.31.656.453.99.05.117.1.235.147.352 2.274-.286 4.533.172 4.758.22-.015-1.613-.59-3.094-1.543-4.257z"/></symbol>
  <symbol id="designernews" viewBox="0 0 24 24"><path d="M7.514 7.988c0-2.555-1.57-4.287-4.56-4.287H0v8.6h3.016c2.903 0 4.498-1.75 4.498-4.31zM5.37 8c0 1.844-.946 2.642-2.467 2.642H2.13V5.358h.773C4.36 5.358 5.37 6.193 5.37 8zM16 12.3V3.7h-1.98v4.81L10.853 3.7h-2.07v8.6h1.982V7.152l3.39 5.146H16z"/></symbol>
  <symbol id="facebook" viewBox="0 0 24 24"><path d="M15.117 0H.883C.395 0 0 .395 0 .883v14.234c0 .488.395.883.883.883h7.663V9.804H6.46V7.39h2.086V5.607c0-2.066 1.262-3.19 3.106-3.19.883 0 1.642.064 1.863.094v2.16h-1.28c-1 0-1.195.476-1.195 1.176v1.54h2.39l-.31 2.416h-2.08V16h4.077c.488 0 .883-.395.883-.883V.883C16 .395 15.605 0 15.117 0" fill-rule="nonzero"/></symbol>
  <symbol id="flickr" viewBox="0 0 24 24"><path d="M0 8c0 2.05 1.662 3.71 3.71 3.71 2.05 0 3.713-1.66 3.713-3.71S5.76 4.29 3.71 4.29C1.663 4.29 0 5.95 0 8zm8.577 0c0 2.05 1.662 3.71 3.712 3.71C14.337 11.71 16 10.05 16 8s-1.662-3.71-3.71-3.71c-2.05 0-3.713 1.66-3.713 3.71z"/></symbol>
  <symbol id="github" viewBox="0 0 24 24"><path d="M8 0C3.58 0 0 3.582 0 8c0 3.535 2.292 6.533 5.47 7.59.4.075.547-.172.547-.385 0-.19-.007-.693-.01-1.36-2.226.483-2.695-1.073-2.695-1.073-.364-.924-.89-1.17-.89-1.17-.725-.496.056-.486.056-.486.803.056 1.225.824 1.225.824.714 1.223 1.873.87 2.33.665.072-.517.278-.87.507-1.07-1.777-.2-3.644-.888-3.644-3.953 0-.873.31-1.587.823-2.147-.083-.202-.358-1.015.077-2.117 0 0 .672-.215 2.2.82.638-.178 1.323-.266 2.003-.27.68.004 1.364.092 2.003.27 1.527-1.035 2.198-.82 2.198-.82.437 1.102.163 1.915.08 2.117.513.56.823 1.274.823 2.147 0 3.073-1.87 3.75-3.653 3.947.287.246.543.735.543 1.48 0 1.07-.01 1.933-.01 2.195 0 .215.144.463.55.385C13.71 14.53 16 11.534 16 8c0-4.418-3.582-8-8-8"/></symbol>
  <symbol id="hackernews" viewBox="0 0 24 24"><path d="M0 0v16h16V0H0zm8.92 8.96v3H7.25v-3l-2.75-5h1.96l1.66 3.48L9.7 3.96h1.88l-2.66 5z"/></symbol>
  <symbol id="instagram" viewBox="0 0 24 24"><path d="M8 0C5.827 0 5.555.01 4.702.048 3.85.088 3.27.222 2.76.42c-.526.204-.973.478-1.417.923-.445.444-.72.89-.923 1.417-.198.51-.333 1.09-.372 1.942C.008 5.555 0 5.827 0 8s.01 2.445.048 3.298c.04.852.174 1.433.372 1.942.204.526.478.973.923 1.417.444.445.89.72 1.417.923.51.198 1.09.333 1.942.372.853.04 1.125.048 3.298.048s2.445-.01 3.298-.048c.852-.04 1.433-.174 1.942-.372.526-.204.973-.478 1.417-.923.445-.444.72-.89.923-1.417.198-.51.333-1.09.372-1.942.04-.853.048-1.125.048-3.298s-.01-2.445-.048-3.298c-.04-.852-.174-1.433-.372-1.942-.204-.526-.478-.973-.923-1.417-.444-.445-.89-.72-1.417-.923-.51-.198-1.09-.333-1.942-.372C10.445.008 10.173 0 8 0zm0 1.44c2.136 0 2.39.01 3.233.048.78.036 1.203.166 1.485.276.374.145.64.318.92.598.28.28.453.546.598.92.11.282.24.705.276 1.485.038.844.047 1.097.047 3.233s-.01 2.39-.048 3.233c-.036.78-.166 1.203-.276 1.485-.145.374-.318.64-.598.92-.28.28-.546.453-.92.598-.282.11-.705.24-1.485.276-.844.038-1.097.047-3.233.047s-2.39-.01-3.233-.048c-.78-.036-1.203-.166-1.485-.276-.374-.145-.64-.318-.92-.598-.28-.28-.453-.546-.598-.92-.11-.282-.24-.705-.276-1.485C1.45 10.39 1.44 10.136 1.44 8s.01-2.39.048-3.233c.036-.78.166-1.203.276-1.485.145-.374.318-.64.598-.92.28-.28.546-.453.92-.598.282-.11.705-.24 1.485-.276C5.61 1.45 5.864 1.44 8 1.44zm0 2.452c-2.27 0-4.108 1.84-4.108 4.108 0 2.27 1.84 4.108 4.108 4.108 2.27 0 4.108-1.84 4.108-4.108 0-2.27-1.84-4.108-4.108-4.108zm0 6.775c-1.473 0-2.667-1.194-2.667-2.667 0-1.473 1.194-2.667 2.667-2.667 1.473 0 2.667 1.194 2.667 2.667 0 1.473-1.194 2.667-2.667 2.667zm5.23-6.937c0 .53-.43.96-.96.96s-.96-.43-.96-.96.43-.96.96-.96.96.43.96.96z"/></symbol>
  <symbol id="linkedin" viewBox="0 0 24 24"><path d="M13.632 13.635h-2.37V9.922c0-.886-.018-2.025-1.234-2.025-1.235 0-1.424.964-1.424 1.96v3.778h-2.37V6H8.51V7.04h.03c.318-.6 1.092-1.233 2.247-1.233 2.4 0 2.845 1.58 2.845 3.637v4.188zM3.558 4.955c-.762 0-1.376-.617-1.376-1.377 0-.758.614-1.375 1.376-1.375.76 0 1.376.617 1.376 1.375 0 .76-.617 1.377-1.376 1.377zm1.188 8.68H2.37V6h2.376v7.635zM14.816 0H1.18C.528 0 0 .516 0 1.153v13.694C0 15.484.528 16 1.18 16h13.635c.652 0 1.185-.516 1.185-1.153V1.153C16 .516 15.467 0 14.815 0z" fill-rule="nonzero"/></symbol>
  <symbol id="medium" viewBox="0 0 24 24"><path d="M11.824 12.628l-.276.45.798.398 2.744 1.372c.15.076.294.11.418.11.278 0 .467-.177.467-.492V5.883l-4.15 6.745zm4.096-8.67c-.004-.003 0-.01-.003-.012l-4.825-2.412c-.06-.03-.123-.038-.187-.044-.016 0-.03-.01-.047-.01-.184 0-.368.092-.467.254l-.24.39-.5.814-1.89 3.08 1.89 3.076.5.813.5.812.59.95 4.71-7.64c.02-.03.01-.06-.02-.08zm-6.27 7.045L7.17 6.97l-.295-.477-.294-.477-.25-.416v4.867l3.32 1.663.5.25.5.25-.5-.813-.5-.813zM.737 1.68L.59 1.608c-.085-.042-.166-.062-.24-.062-.206 0-.35.16-.35.427v10.162c0 .272.2.594.442.716l4.145 2.08c.107.06.208.08.3.08.257 0 .438-.2.438-.53V4.01c0-.02-.012-.04-.03-.047L.738 1.68z"/></symbol>
  <symbol id="pinterest" viewBox="0 0 24 24"><path d="M8 0C3.582 0 0 3.582 0 8c0 3.39 2.108 6.285 5.084 7.45-.07-.633-.133-1.604.028-2.295.146-.625.938-3.977.938-3.977s-.24-.48-.24-1.188c0-1.11.646-1.943 1.448-1.943.683 0 1.012.513 1.012 1.127 0 .687-.436 1.713-.662 2.664-.19.797.4 1.445 1.185 1.445 1.42 0 2.514-1.498 2.514-3.662 0-1.915-1.376-3.254-3.342-3.254-2.276 0-3.61 1.707-3.61 3.472 0 .687.263 1.424.593 1.825.066.08.075.15.057.23-.06.252-.196.796-.223.907-.035.146-.115.178-.268.107-.998-.465-1.624-1.926-1.624-3.1 0-2.524 1.834-4.84 5.287-4.84 2.774 0 4.932 1.977 4.932 4.62 0 2.757-1.74 4.977-4.153 4.977-.81 0-1.572-.422-1.833-.92l-.5 1.902c-.18.695-.667 1.566-.994 2.097.75.232 1.545.357 2.37.357 4.417 0 8-3.582 8-8s-3.583-8-8-8z" fill-rule="nonzero"/></symbol>
  <symbol id="rss" viewBox="0 0 24 24"><path d="M12.8 16C12.8 8.978 7.022 3.2 0 3.2V0c8.777 0 16 7.223 16 16h-3.2zM2.194 11.61c1.21 0 2.195.985 2.195 2.196 0 1.21-.985 2.194-2.196 2.194C.984 16 0 15.017 0 13.806c0-1.21.983-2.195 2.194-2.195zM10.606 16h-3.11c0-4.113-3.383-7.497-7.496-7.497v-3.11c5.818 0 10.606 4.79 10.606 10.607z"/></symbol>
  <symbol id="reddit" viewBox="0 0 24 24"><path d="M1.473 9.368c-.04.185-.06.374-.06.566 0 2.3 2.94 4.173 6.554 4.173 3.613 0 6.553-1.872 6.553-4.173 0-.183-.02-.364-.055-.54l-.01-.022c-.013-.036-.02-.073-.02-.11-.2-.784-.745-1.497-1.533-2.072-.03-.01-.058-.026-.084-.047-.017-.013-.03-.028-.044-.043-1.198-.824-2.91-1.34-4.807-1.34-1.88 0-3.576.506-4.772 1.315-.01.012-.02.023-.033.033-.026.022-.056.04-.087.05-.805.576-1.364 1.293-1.572 2.086 0 .038-.01.077-.025.114l-.005.01zM8 13.003c-1.198 0-2.042-.26-2.58-.8-.116-.116-.116-.305 0-.422.117-.11.307-.11.424 0 .42.42 1.125.63 2.155.63 1.03 0 1.73-.2 2.15-.62.11-.11.3-.11.42 0 .11.12.11.31 0 .43-.54.54-1.38.8-2.58.8zM5.592 7.945c-.61 0-1.12.51-1.12 1.12 0 .608.51 1.102 1.12 1.102.61 0 1.103-.494 1.103-1.102 0-.61-.494-1.12-1.103-1.12zm4.83 0c-.61 0-1.12.51-1.12 1.12 0 .608.51 1.102 1.12 1.102.61 0 1.103-.494 1.103-1.102 0-.61-.494-1.12-1.103-1.12zM13.46 6.88c.693.556 1.202 1.216 1.462 1.94.3-.225.48-.578.48-.968 0-.67-.545-1.214-1.214-1.214-.267 0-.52.087-.728.243zM1.812 6.64c-.67 0-1.214.545-1.214 1.214 0 .363.16.7.43.927.268-.72.782-1.37 1.478-1.92-.202-.14-.443-.22-.694-.22zm6.155 8.067c-3.944 0-7.152-2.14-7.152-4.77 0-.183.016-.363.046-.54-.53-.33-.86-.91-.86-1.545 0-1 .82-1.812 1.82-1.812.45 0 .87.164 1.2.455 1.24-.796 2.91-1.297 4.75-1.33l1.21-3.69.27.063s.01 0 .01.002l2.82.663c.23-.533.76-.908 1.38-.908.82 0 1.49.67 1.49 1.492 0 .823-.67 1.492-1.49 1.492s-1.49-.67-1.49-1.49L9.4 2.18l-.98 2.99c1.77.07 3.37.57 4.57 1.35.33-.31.764-.48 1.225-.48 1 0 1.814.81 1.814 1.81 0 .66-.36 1.26-.92 1.58.02.17.04.33.04.5-.01 2.63-3.21 4.77-7.16 4.77zM13.43 1.893c-.494 0-.895.4-.895.894 0 .493.4.894.894.894.49 0 .89-.4.89-.89s-.4-.89-.9-.89z"/></symbol>
  <symbol id="skype" viewBox="0 0 24 24"><path d="M8.035 12.6c-2.685 0-3.885-1.322-3.885-2.313 0-.51.374-.865.89-.865 1.15 0 .85 1.653 2.995 1.653 1.096 0 1.703-.597 1.703-1.208 0-.368-.18-.775-.904-.954l-2.387-.597C4.524 7.833 4.175 6.79 4.175 5.812c0-2.034 1.91-2.798 3.704-2.798 1.65 0 3.6.916 3.6 2.136 0 .523-.452.827-.97.827-.98 0-.798-1.36-2.773-1.36-.98 0-1.523.444-1.523 1.08 0 .636.774.84 1.446.993l1.767.392c1.936.433 2.427 1.566 2.427 2.633 0 1.652-1.266 2.886-3.82 2.886m7.4-3.264l-.014.084-.028-.16c.015.024.028.05.042.076.082-.45.125-.912.125-1.373 0-1.023-.2-2.014-.595-2.948-.38-.902-.925-1.712-1.62-2.407-.692-.696-1.5-1.242-2.4-1.623C10.015.59 9.025.39 8.005.39c-.48 0-.963.045-1.43.135H6.57l.08.04-.16-.023.08-.016C5.927.183 5.205 0 4.472 0 3.278 0 2.155.466 1.31 1.313.465 2.16 0 3.286 0 4.483c0 .763.195 1.512.563 2.175l.013-.083.028.16c-.015-.026-.027-.052-.04-.077-.076.43-.115.867-.115 1.305 0 1.022.2 2.014.593 2.948.38.903.925 1.713 1.62 2.408.693.695 1.5 1.242 2.4 1.623.932.397 1.92.597 2.94.597.445 0 .89-.04 1.325-.118l-.077-.043.162.028-.084.014c.67.378 1.426.58 2.2.58 1.194 0 2.317-.466 3.162-1.313.845-.846 1.31-1.972 1.31-3.17 0-.765-.197-1.517-.566-2.18" fill-rule="nonzero"/></symbol>
  <symbol id="tumblr" viewBox="0 0 24 24"><path d="M9.708 16c-3.396 0-4.687-2.504-4.687-4.274V6.498H3.403V4.432C5.83 3.557 6.412 1.368 6.55.12c.01-.086.077-.12.115-.12H9.01v4.076h3.2v2.422H8.997v4.98c.01.667.25 1.58 1.472 1.58h.067c.424-.012.994-.136 1.29-.278l.77 2.283c-.288.424-1.594.916-2.77.936h-.12z" fill-rule="nonzero"/></symbol>
  <symbol id="twitch" viewBox="0 0 24 24"><g fill-rule="nonzero"><path d="M1.393 0L.35 2.783v11.13h3.824V16h2.088l2.085-2.088h3.13L15.65 9.74V0H1.394zm1.39 1.39H14.26v7.653l-2.435 2.435H8l-2.085 2.085v-2.085H2.783V1.39z"/><path d="M6.61 8.348H8V4.175H6.61v4.173zm3.824 0h1.39V4.175h-1.39v4.173z"/></g></symbol>
  <symbol id="twitter" viewBox="0 0 24 24"><path d="M16 3.038c-.59.26-1.22.437-1.885.517.677-.407 1.198-1.05 1.443-1.816-.634.375-1.337.648-2.085.795-.598-.638-1.45-1.036-2.396-1.036-1.812 0-3.282 1.468-3.282 3.28 0 .258.03.51.085.75C5.152 5.39 2.733 4.084 1.114 2.1.83 2.583.67 3.147.67 3.75c0 1.14.58 2.143 1.46 2.732-.538-.017-1.045-.165-1.487-.41v.04c0 1.59 1.13 2.918 2.633 3.22-.276.074-.566.114-.865.114-.21 0-.416-.02-.617-.058.418 1.304 1.63 2.253 3.067 2.28-1.124.88-2.54 1.404-4.077 1.404-.265 0-.526-.015-.783-.045 1.453.93 3.178 1.474 5.032 1.474 6.038 0 9.34-5 9.34-9.338 0-.143-.004-.284-.01-.425.64-.463 1.198-1.04 1.638-1.7z" fill-rule="nonzero"/></symbol>
  <symbol id="vimeo" viewBox="0 0 24 24"><path d="M15.992 4.275c-.07 1.56-1.16 3.697-3.263 6.41-2.176 2.832-4.017 4.248-5.522 4.248-.933 0-1.722-.862-2.367-2.588L3.55 7.6c-.48-1.724-.993-2.587-1.542-2.587-.12 0-.538.252-1.255.755L0 4.796C.79 4.1 1.568 3.406 2.335 2.71c1.053-.912 1.844-1.39 2.37-1.44 1.246-.12 2.012.733 2.3 2.56.31 1.97.526 3.194.647 3.673.36 1.634.754 2.45 1.185 2.45.335 0 .838-.53 1.51-1.59.67-1.06 1.028-1.866 1.076-2.42.096-.915-.263-1.374-1.077-1.374-.383 0-.778.087-1.185.262.788-2.58 2.29-3.834 4.508-3.762 1.644.048 2.42 1.116 2.324 3.205z" fill-rule="nonzero"/></symbol>
  <symbol id="youtube" viewBox="0 0 24 24"><path d="M0 7.345c0-1.294.16-2.59.16-2.59s.156-1.1.636-1.587c.608-.637 1.408-.617 1.764-.684C3.84 2.36 8 2.324 8 2.324s3.362.004 5.6.166c.314.038.996.04 1.604.678.48.486.636 1.588.636 1.588S16 6.05 16 7.346v1.258c0 1.296-.16 2.59-.16 2.59s-.156 1.102-.636 1.588c-.608.638-1.29.64-1.604.678-2.238.162-5.6.166-5.6.166s-4.16-.037-5.44-.16c-.356-.067-1.156-.047-1.764-.684-.48-.487-.636-1.587-.636-1.587S0 9.9 0 8.605v-1.26zm6.348 2.73V5.58l4.323 2.255-4.32 2.24h-.002z"/></symbol>
  <symbol id="link" viewBox="0 0 24 24"><path d="M5.86 12.7l-.81.8c-.7.7-1.84.7-2.54 0a1.75 1.75 0 0 1 0-2.5l2.98-2.96c.61-.61 1.77-1.52 2.62-.68a1 1 0 1 0 1.4-1.4c-1.44-1.43-3.57-1.17-5.42.67L1.1 9.6a3.72 3.72 0 0 0 0 5.32 3.78 3.78 0 0 0 5.34 0l.8-.8a1 1 0 1 0-1.39-1.42zm9.03-11.5c-1.55-1.53-3.7-1.6-5.14-.19l-1 1a1 1 0 1 0 1.39 1.41l1-1c.75-.74 1.72-.43 2.35.2a1.75 1.75 0 0 1 0 2.5l-3.17 3.15c-1.46 1.45-2.14.77-2.43.48a1 1 0 0 0-1.4 1.4c.67.67 1.43 1 2.23 1 .98 0 2.01-.5 3-1.47l3.17-3.15a3.72 3.72 0 0 0 0-5.32z"/></symbol>
  <symbol id="email" viewBox="0 0 24 19"><path fill-rule="evenodd" d="M1.33 0h13.34L8 5 1.33 0zM16 0v11H0V0l8 6 8-6z"/></symbol>
  <symbol id="nav" viewBox="0 0 24 19"><path d="M0 12h16v-2H0v2zm0-5h16V5H0v2zm0-7v2h16V0H0z"/></symbol>
  <symbol id="forumsc" viewBox="0 0 24 24"><path d="M 4.6218 13.9654 C 4.4959 13.9151 4.3319 13.7698 4.2608 13.6456 C 4.2336 13.5979 4.2012 13.3413 4.189 13.0755 L 4.1666 12.592 L 3.7981 12.8112 C 3.3687 13.0666 3.1246 13.115 2.8714 12.9949 C 2.7841 12.9535 2.6767 12.8684 2.6327 12.8057 C 2.5491 12.6867 0.1801 8.5901 0.0551 8.3483 C -0.0908 8.066 -0.0045 7.6909 0.2497 7.5013 C 0.3298 7.4417 0.5169 7.3269 0.6656 7.2463 C 0.8144 7.1657 0.9362 7.0901 0.9363 7.0781 C 0.9364 7.0662 0.7721 6.9633 0.5711 6.8493 C 0.3702 6.7354 0.1565 6.5836 0.0963 6.512 C -0.0243 6.3687 -0.083 6.1421 -0.0466 5.9601 C -0.0163 5.8083 2.5145 1.4164 2.663 1.2578 C 2.7927 1.1192 3.0627 1.0334 3.2505 1.0709 C 3.3219 1.0852 3.5298 1.1845 3.7123 1.2915 C 3.8948 1.3985 4.055 1.486 4.0681 1.486 C 4.0812 1.486 4.0999 1.2763 4.1096 1.02 C 4.1294 0.497 4.1857 0.3418 4.4152 0.1781 L 4.5567 0.0772 H 7.3094 H 10.0621 L 10.2036 0.1781 C 10.4295 0.3393 10.4889 0.4986 10.5091 0.9983 C 10.519 1.2427 10.5375 1.4427 10.5504 1.4427 C 10.5633 1.4427 10.7317 1.3516 10.9248 1.2402 C 11.4443 0.9405 11.7487 0.9384 12.0197 1.2326 C 12.203 1.4316 14.689 5.7947 14.7108 5.9554 C 14.7245 6.0571 14.7015 6.1802 14.6448 6.3085 C 14.5686 6.4807 14.5082 6.5346 14.1641 6.7376 C 13.9476 6.8652 13.7702 6.9794 13.7698 6.9914 C 13.7694 7.0033 13.9494 7.1203 14.1697 7.2515 C 14.5048 7.4509 14.5868 7.5218 14.6704 7.685 C 14.7459 7.8323 14.7641 7.9214 14.7447 8.0493 C 14.7276 8.1617 14.2824 8.9752 13.416 10.4768 C 12.6994 11.7189 12.0832 12.7686 12.0468 12.8095 C 11.9419 12.9271 11.6238 13.0309 11.462 13.0002 C 11.3834 12.9854 11.1534 12.8782 10.9507 12.762 L 10.5822 12.5508 L 10.5606 13.0765 C 10.5359 13.6757 10.4918 13.7767 10.1893 13.9266 C 10.0182 14.0113 9.9351 14.0138 7.3716 14.0112 C 5.7246 14.0097 4.6893 13.9922 4.6218 13.9653 Z M 8.7387 12.1202 C 8.8279 12.0068 8.8301 11.9701 8.8177 10.7778 C 8.8028 9.3379 8.827 9.41 8.3497 9.3831 C 8.1731 9.3731 8.0464 9.3833 8.0464 9.4075 C 8.0464 9.4304 8.078 9.5123 8.1166 9.5897 C 8.2054 9.7679 8.1777 10.1189 8.0625 10.2731 C 8.0171 10.334 7.5267 10.6466 6.9727 10.9678 L 5.9656 11.5518 V 11.815 C 5.9656 12.2564 5.8997 12.2367 7.378 12.2367 H 8.6469 Z M 4.7372 10.237 C 5.2817 9.924 5.7711 9.628 5.8248 9.5792 C 5.9567 9.4594 5.9475 9.3219 5.7891 9.045 C 5.7158 8.9169 5.6491 8.8121 5.6409 8.8121 C 5.6327 8.8121 5.5846 8.879 5.5341 8.9608 C 5.4131 9.1566 5.1047 9.3083 4.8964 9.2745 C 4.8121 9.2609 4.3031 8.9951 3.7653 8.6841 C 3.2275 8.373 2.7606 8.1185 2.7278 8.1185 C 2.5765 8.1185 2.2377 8.4014 2.2377 8.5277 C 2.2377 8.6406 3.3762 10.6266 3.5004 10.7303 C 3.5503 10.7721 3.6263 10.8062 3.6692 10.8062 C 3.7121 10.8062 4.1927 10.5501 4.7373 10.237 Z M 11.2682 10.6394 C 11.3028 10.6 11.5869 10.1255 11.8996 9.5849 C 12.5326 8.4903 12.5589 8.4073 12.3271 8.235 C 12.1539 8.1061 10.4674 7.1334 10.3201 7.0774 C 10.1566 7.0152 10.0141 7.1061 9.8673 7.3661 C 9.7957 7.4932 9.737 7.6071 9.737 7.6194 C 9.737 7.6317 9.8199 7.6419 9.9212 7.6419 C 10.1335 7.6421 10.3463 7.7558 10.4607 7.9303 C 10.53 8.0359 10.5414 8.1899 10.5606 9.2848 L 10.5822 10.52 L 10.8079 10.6379 C 11.0433 10.7608 11.161 10.7611 11.2681 10.6394 Z M 7.8421 7.3619 C 7.9306 7.208 8.0031 7.0608 8.0031 7.0348 C 8.0031 7.0089 7.9306 6.8617 7.8421 6.7078 L 7.6812 6.4279 H 7.3485 H 7.0159 L 6.8356 6.7314 L 6.6553 7.0348 L 6.8356 7.3383 L 7.0159 7.6418 H 7.3485 H 7.6812 Z M 4.6706 6.9111 C 4.7094 6.8719 4.7942 6.7471 4.859 6.6339 L 4.9769 6.428 H 4.7841 C 4.5698 6.428 4.3646 6.3137 4.214 6.1106 C 4.1279 5.9943 4.1227 5.9273 4.1101 4.7625 L 4.0968 3.5366 L 3.8775 3.4236 C 3.517 3.2379 3.5039 3.2505 2.8215 4.4337 C 2.4984 4.9938 2.2249 5.4913 2.2138 5.5391 C 2.1712 5.7221 2.3071 5.8276 3.3616 6.4305 C 4.4553 7.0557 4.5085 7.0752 4.6707 6.9111 Z M 12.2072 5.8588 C 12.3895 5.7477 12.4648 5.655 12.4668 5.5393 C 12.4685 5.4457 11.3853 3.5218 11.2404 3.361 C 11.1833 3.2976 11.1058 3.2648 11.0191 3.2671 C 10.826 3.2724 8.874 4.415 8.7849 4.575 C 8.7217 4.6885 8.7258 4.7088 8.8665 4.9808 L 9.0146 5.2673 L 9.1638 5.0877 C 9.3465 4.8677 9.5066 4.7807 9.7288 4.7807 C 9.8673 4.7807 10.0838 4.8874 10.9123 5.3643 C 11.47 5.6853 11.9555 5.9486 11.9912 5.9494 C 12.027 5.9504 12.1242 5.9094 12.2072 5.8588 Z M 6.6364 4.6182 C 6.4655 4.215 6.4712 4.011 6.6601 3.7708 C 6.708 3.7098 7.1957 3.4021 7.7437 3.087 L 8.74 2.514 V 2.2602 C 8.74 1.8194 8.7857 1.8331 7.3095 1.8331 C 6.1102 1.8331 6.0484 1.8372 5.9656 1.9197 C 5.883 2.0024 5.879 2.0642 5.879 3.2439 V 4.4813 L 5.9854 4.5877 C 6.077 4.6794 6.1317 4.6941 6.3802 4.6941 C 6.6382 4.6941 6.6651 4.6861 6.6364 4.6182 Z" fill-rule="nonzero"/></symbol>
  <symbol id="signal" viewBox="0 0 24 24"><path d="M13.056 0C13.4808 0 13.824.3432 13.824.768V11.52C13.824 11.9448 13.4808 12.288 13.056 12.288S12.288 11.9448 12.288 11.52V.768C12.288.3432 12.6312 0 13.056 0ZM9.984 2.304C10.4088 2.304 10.752 2.6472 10.752 3.072V11.52C10.752 11.9448 10.4088 12.288 9.984 12.288S9.216 11.9448 9.216 11.52V3.072C9.216 2.6472 9.5592 2.304 9.984 2.304ZM7.68 5.376V11.52C7.68 11.9448 7.3368 12.288 6.912 12.288S6.144 11.9448 6.144 11.52V5.376C6.144 4.9512 6.4872 4.608 6.912 4.608S7.68 4.9512 7.68 5.376ZM3.84 6.912C4.2648 6.912 4.608 7.2552 4.608 7.68V11.52C4.608 11.9448 4.2648 12.288 3.84 12.288S3.072 11.9448 3.072 11.52V7.68C3.072 7.2552 3.4152 6.912 3.84 6.912ZM1.536 9.984V11.52C1.536 11.9448 1.1928 12.288.768 12.288S-0 11.9448-0 11.52V9.984C-0 9.5592.3432 9.216.768 9.216S1.536 9.5592 1.536 9.984Z" fill-rule="nonzero"/></symbol>
  <symbol id="linux" viewBox="0 0 24 24"><path d="M274.659 244.888c-8.944-3.663-12.77-8.524-12.4-15.777.381-8.466-4.422-14.667-6.703-17.117 1.378-5.264 5.405-23.474.004-39.291-5.804-16.93-23.524-42.787-41.808-68.204-7.485-10.438-7.839-21.784-8.248-34.922-.392-12.531-.834-26.735-7.822-42.525C190.084 9.859 174.838 0 155.851 0c-11.295 0-22.889 3.53-31.811 9.684-18.27 12.609-15.855 40.1-14.257 58.291.219 2.491.425 4.844.545 6.853 1.064 17.816.096 27.206-1.17 30.06-.819 1.865-4.851 7.173-9.118 12.793-4.413 5.812-9.416 12.4-13.517 18.539-4.893 7.387-8.843 18.678-12.663 29.597-2.795 7.99-5.435 15.537-8.005 20.047a27.296 27.296 0 0 0-2.647 20.505c-1.844 1.281-4.508 3.803-6.757 8.557-2.718 5.8-8.233 8.917-19.701 11.122-5.27 1.078-8.904 3.294-10.804 6.586-2.765 4.791-1.259 10.811.115 14.925 2.03 6.048.765 9.876-1.535 16.826-.53 1.604-1.131 3.42-1.74 5.423-.959 3.161-.613 6.035 1.026 8.542 4.331 6.621 16.969 8.956 29.979 10.492 7.768.922 16.27 4.029 24.493 7.035 8.057 2.944 16.388 5.989 23.961 6.913 1.151.145 2.291.218 3.39.218 11.434 0 16.6-7.587 18.238-10.704 4.107-.838 18.272-3.522 32.871-3.882 14.576-.416 28.679 2.462 32.674 3.357 1.256 2.404 4.567 7.895 9.845 10.724 2.901 1.586 6.938 2.495 11.073 2.495h.001c4.416 0 12.817-1.044 19.466-8.039 6.632-7.028 23.202-16 35.302-22.551a717.87 717.87 0 0 0 7.441-4.065c6.797-3.768 10.506-9.152 10.175-14.771-.276-4.667-3.365-8.761-8.062-10.684zm-150.47-1.353c-.846-5.96-8.513-11.871-17.392-18.715-7.26-5.597-15.489-11.94-17.756-17.312-4.685-11.082-.992-30.568 5.447-40.602 3.182-5.024 5.781-12.643 8.295-20.011 2.714-7.956 5.521-16.182 8.66-19.783 4.971-5.622 9.565-16.561 10.379-25.182 4.655 4.444 11.876 10.083 18.547 10.083 1.027 0 2.024-.134 2.977-.403 4.564-1.318 11.277-5.197 17.769-8.947 5.597-3.234 12.499-7.222 15.096-7.585 4.453 6.394 30.328 63.655 32.972 82.044 2.092 14.55-.118 26.578-1.229 31.289a23.017 23.017 0 0 0-3.08-.221c-7.207 0-9.115 3.934-9.612 6.283-1.278 6.103-1.413 25.618-1.427 30.003-2.606 3.311-15.785 18.903-34.706 21.706-7.707 1.12-14.904 1.688-21.39 1.688-5.544 0-9.082-.428-10.551-.651l-9.508-10.879c3.749-1.851 7.497-5.757 6.509-12.805zm12.065-179.386c-.297.128-.589.265-.876.411a17.713 17.713 0 0 0-.199-1.952c-1.038-5.975-5-10.312-9.419-10.312-.327 0-.656.025-1.017.08-2.629.438-4.691 2.413-5.821 5.213.991-6.144 4.472-10.693 8.602-10.693 4.85 0 8.947 6.536 8.947 14.272 0 .975-.071 1.945-.217 2.981zm37.686 4.607c.444-1.414.684-2.944.684-4.532 0-7.014-4.45-12.509-10.131-12.509-5.552 0-10.069 5.611-10.069 12.509 0 .47.023.941.067 1.411l-.861-.329a19.125 19.125 0 0 1-.962-6.015c0-8.387 5.36-15.211 11.95-15.211 6.589 0 11.95 6.824 11.95 15.211 0 3.489-.963 6.819-2.628 9.465zm-4.859 16.324c-.095.424-.297.612-2.531 1.774-1.128.587-2.532 1.318-4.289 2.388l-1.174.711c-4.718 2.86-15.765 9.559-18.764 9.952-2.037.274-3.297-.516-6.13-2.441a88.441 88.441 0 0 0-2.044-1.362c-5.107-3.351-8.392-7.042-8.763-8.485 1.665-1.287 5.792-4.508 7.905-6.415 4.289-3.988 8.605-6.668 10.741-6.668.113 0 .215.008.321.028 2.51.443 8.701 2.914 13.223 4.718 2.09.834 3.895 1.554 5.165 2.01 4.001 1.374 6.087 3.132 6.34 3.79zm35.947 186.37c2.257-10.181 4.857-24.031 4.436-32.196-.097-1.855-.261-3.874-.42-5.826-.297-3.65-.738-9.075-.283-10.684.09-.042.19-.078.301-.109.019 4.668 1.033 13.979 8.479 17.226 2.219.968 4.755 1.458 7.537 1.458 7.459 0 15.735-3.659 19.125-7.049 1.996-1.996 3.675-4.438 4.851-6.372.257.753.415 1.737.332 3.005-.443 6.885 2.903 16.019 9.271 19.385l.927.487c2.268 1.19 8.292 4.353 8.389 5.853-.001.001-.051.177-.387.489-1.509 1.379-6.82 4.091-11.956 6.714-9.111 4.652-19.438 9.925-24.076 14.803-6.53 6.872-13.916 11.488-18.376 11.488a4.83 4.83 0 0 1-1.461-.206c-4.844-1.51-8.831-8.499-6.689-18.466zM39.917 245.477c-.494-2.312-.884-4.137-.465-5.905.304-1.31 6.771-2.714 9.533-3.313 3.883-.843 7.899-1.714 10.525-3.308 3.551-2.151 5.474-6.118 7.17-9.618 1.228-2.531 2.496-5.148 4.005-6.007.085-.05.215-.108.463-.108 2.827 0 8.759 5.943 12.177 11.262.867 1.341 2.473 4.028 4.331 7.139 5.557 9.298 13.166 22.033 17.14 26.301 3.581 3.837 9.378 11.214 7.952 17.541-1.044 4.909-6.602 8.901-7.913 9.784-.476.108-1.065.163-1.758.163-7.606 0-22.662-6.328-30.751-9.728l-1.197-.503c-4.517-1.894-11.891-3.087-19.022-4.241-5.674-.919-13.444-2.176-14.732-3.312-1.044-1.171.167-4.978 1.235-8.337.769-2.414 1.563-4.91 1.998-7.523.617-4.168-.109-7.561-.691-10.287z"/></symbol>
  <symbol id="windows" viewBox="0 0 24 24"><path d="M14.687 16.75h16.309v14.246l-16.12-2.251zM1.004 16.75h12.184v11.81l-12.184-1.69zM14.687 3.44l16.309-2.436v14.246h-16.309zM1.004 5.314l12.184-1.686v11.81h-12.184z"/></symbol>
  <symbol id="mac" viewBox="0 0 24 24"><path d="M16.52 12.46C16.508 11.8438 16.6682 11.2365 16.9827 10.7065C17.2972 10.1765 17.7534 9.74476 18.3 9.46C17.9558 8.98143 17.5063 8.5883 16.9862 8.31089C16.466 8.03349 15.8892 7.87923 15.3 7.86C14.03 7.76 12.65 8.6 12.14 8.6C11.63 8.6 10.37 7.9 9.40999 7.9C7.40999 7.9 5.29999 9.49 5.29999 12.66C5.30963 13.6481 5.48194 14.6279 5.80999 15.56C6.24999 16.84 7.89999 20.05 9.61999 20C10.52 20 11.16 19.36 12.33 19.36C13.5 19.36 14.05 20 15.06 20C16.79 20 18.29 17.05 18.72 15.74C18.0689 15.4737 17.5119 15.0195 17.1201 14.4353C16.7282 13.8511 16.5193 13.1634 16.52 12.46ZM14.52 6.59C14.8307 6.23965 15.065 5.82839 15.2079 5.38245C15.3508 4.93651 15.3992 4.46569 15.35 4C14.4163 4.10239 13.5539 4.54785 12.93 5.25C12.6074 5.58991 12.3583 5.99266 12.1983 6.43312C12.0383 6.87358 11.9708 7.34229 12 7.81C12.4842 7.82361 12.9646 7.71974 13.3999 7.50728C13.8353 7.29482 14.2127 6.98009 14.5 6.59H14.52Z"/></symbol>
</svg>


