<?xml version="1.0" encoding="UTF-8"?>
<!-- Created with Inkscape (http://www.inkscape.org/) -->
<svg width="67.183mm" height="66.105mm" version="1.1" viewBox="0 0 67.183 66.105" xmlns="http://www.w3.org/2000/svg">
 <g transform="translate(-87.439 -34.692)">
  <path d="m94.572 100.63c0-0.13467 1.2505-1.4078 2.779-2.8291 2.622-2.4382 2.7574-2.615 2.3973-3.1291-0.20991-0.29969-1.719-1.9004-3.3536-3.5572l-2.972-3.0123-2.7683 2.7175c-2.4521 2.4071-2.7924 2.657-2.9786 2.1883-0.63346-1.594 0.0521-4.7772 1.4817-6.8792 1.1031-1.622 2.3204-2.609 4.2947-3.4821 1.3237-0.58542 1.8013-0.6558 3.9171-0.57726l2.4096 0.0894 35.914-35.585 0.0112-2.4474c0.0101-2.215 0.0933-2.6153 0.87587-4.2151 0.95918-1.9608 2.4206-3.4172 4.4561-4.4406 1.0386-0.5222 1.8027-0.67165 3.8735-0.75763 1.5509-0.0644 2.5797-6e-3 2.5797 0.14759 0 0.14009-1.25 1.4139-2.7779 2.8307-2.618 2.4278-2.756 2.6072-2.3973 3.1193 0.20929 0.29882 1.7179 1.8988 3.3525 3.5556l2.972 3.0123 2.7683-2.7175c2.4521-2.4071 2.7924-2.657 2.9786-2.1883 0.63346 1.594-0.0521 4.7772-1.4817 6.8792-1.1031 1.622-2.3204 2.609-4.2947 3.4821-1.3281 0.58734-1.7987 0.65599-3.9533 0.57667l-2.4458-0.09-12.772 12.725c-7.0248 6.999-15.083 14.987-17.907 17.751l-5.1343 5.025-0.0251 2.496c-0.0227 2.2602-0.10723 2.6628-0.8947 4.2622-0.96408 1.958-2.4241 3.4112-4.4511 4.4304-1.0386 0.52221-1.8027 0.67166-3.8735 0.75764-1.482 0.0615-2.5797 3e-3 -2.5797-0.13775zm29.666-7.313-1.1583-1.967-6.6792-0.26441-0.66146 0.7079c-0.3638 0.38935-1.0951 1.2386-1.6251 1.8873l-0.96365 1.1794-4.6873-1.5875-0.13229-1.7886-0.13229-1.7886 5.6908-5.6859c5.6005-5.5957 5.7083-5.6859 6.8-5.6859 6.3323 0 12.248-5.6674 12.248-11.734v-1.3681l4.99-4.9849c3.5806-3.5769 5.1313-4.9577 5.4901-4.8886 0.55762 0.10733 1.4531 2.2764 1.9483 4.7193 0.37363 1.8432 0.7065 2.6458 1.0972 2.6458 0.16933 0 1.1244 0.24317 2.1223 0.54037l1.8145 0.54037-3e-3 2.5685c-2e-3 1.4127-0.0749 3.0038-0.16288 3.5358l-0.15997 0.96736-2.0426 0.18082c-1.1235 0.0994-2.1539 0.25945-2.2898 0.35556-0.13595 0.0961-0.61807 1.2463-1.0714 2.556-0.45332 1.3097-0.97804 2.755-1.1661 3.2117-0.32971 0.80094-0.29254 0.89695 1.0466 2.7034l1.3884 1.8729-0.79496 1.1331c-0.43723 0.62321-1.4356 1.84-2.2186 2.7039l-1.4236 1.5708-4.1043-2.2138-0.98362 0.82579c-0.54099 0.45419-1.8125 1.3301-2.8255 1.9464l-1.8419 1.1206-0.13229 2.4741-0.1323 2.4741-1.9808 0.61941c-1.0894 0.34068-2.4587 0.67886-3.0427 0.75152l-1.0619 0.13212-1.1583-1.967zm-29.878-13.621c-0.38627-0.59076-0.3427-0.66552 1.2337-2.1167l1.6341-1.5043-0.65364-1.7628c-0.3595-0.96954-0.81673-2.5769-1.0161-3.5719l-0.36242-1.8091-4.5023-1.2622 0.10078-2.8085c0.14585-4.0639 0.0795-3.9122 1.8601-4.2521 3.124-0.59634 2.9671-0.48696 3.623-2.5252 0.3278-1.0186 0.93445-2.5325 1.3481-3.3642l0.75211-1.5121-2.7546-4.0195 1.5612-1.9021c0.85865-1.0462 1.8591-2.1782 2.2231-2.5157l0.66195-0.61357 1.8751 0.9443c1.0313 0.51936 1.9949 0.9443 2.1412 0.9443 0.14634 0 1.1449-0.59036 2.219-1.3119 1.0741-0.72156 2.267-1.455 2.6509-1.63 0.75178-0.34254 0.75687-0.36671 0.7006-3.3262l-0.0362-1.9024 1.6946-0.52342c2.4361-0.75243 5.0403-1.2293 5.143-0.94181 0.0477 0.13362 0.54596 1.0607 1.1072 2.0601l1.0204 1.8172 2.6434 0.0723c1.4538 0.0397 2.8831 0.14836 3.1762 0.24137 0.48643 0.15439 1.4325-0.89418 3.4071-3.7764 0.23855-0.34821 6.7126 2.3082 6.7126 2.7542 0 0.18635-0.18912 1.077-0.42027 1.9793-0.23116 0.90227-0.37999 2.223-0.33073 2.935l0.0896 1.2945-8.4667 8.4504-1.2988-0.39198c-1.8414-0.55573-5.3066-0.50368-7.2761 0.1093-6.246 1.944-9.9918 8.6632-8.348 14.974l0.40733 1.5639-9.6366 9.6472-2.2417 0.0843c-2.0977 0.0789-2.2674 0.045-2.6421-0.52809z" stroke-width=".26458"/>
 </g>
</svg>
